# xmcd
#
# Track frame offsets:
#	150
#	20305
#	37441
#	54483
#	71431
#	87525
#	105631
#	122187
#	139580
#	155250
#	171551
#	190165
#	204349
#	222073
#	237757
#	257122
#	277147
#
# Disc length: 3783 seconds
#
# Revision: 0
# Processed by: cddbd v1.4PL0 Copyright (c) Steve Scherf et al.
# Submitted via: dBpowerAMP V4.0
#
DISCID=fc0ec511
DTITLE=Ley Rico - Le y Rico
DYEAR=2003
DGENRE=Hip-Hop
TTITLE0=Ley Rico
TTITLE1=Mas problemas
TTITLE2=Besos de contrabando
TTITLE3=Moreno
TTITLE4=Tu y Yo con Costa
TTITLE5=Desde la Villeneuve
TTITLE6=Negocios
TTITLE7=Madrid con Chiri Vegas
TTITLE8=Si no hay pasta
TTITLE9=Dolce Vita
TTITLE10=Chicos listos con Costa
TTITLE11=Hablad de mi
TTITLE12=Balas de oro con Hermanos Hermèticos
TTITLE13=Rose 92 con Costa
TTITLE14=Ooh!! Mama con Inoxi
TTITLE15=Aqui te espero
TTITLE16=Outro
EXTD=
EXTT0=
EXTT1=
EXTT2=
EXTT3=
EXTT4=
EXTT5=
EXTT6=
EXTT7=
EXTT8=
EXTT9=
EXTT10=
EXTT11=
EXTT12=
EXTT13=
EXTT14=
EXTT15=
EXTT16=
PLAYORDER=
